# xmcd
#
# Track frame offsets:
#	150
#	12560
#	24637
#	37860
#	49692
#	62917
#	77730
#	87870
#	98835
#	115845
#	129292
#	145655
#	158052
#	177242
#	191622
#	207012
#	224300
#	239155
#	255485
#	270187
#
# Disc length: 3806
#
# Revision: 2
# Processed by: cddbd v1.5.1PL0 Copyright (c) Steve Scherf et al.
# Submitted via: FreeRIP 2.35 
# Normalized: r0:TDELIM( - ),TSWAP
#
DISCID=0a0edc14
DTITLE=Various Artist - Classic Country Songs
DYEAR=1997
DGENRE=Country
TTITLE0=Johnny Cash - Ring 0f Fire
TTITLE1=Glen Campbell - Galveston
TTITLE2=Crystal Gayle - Talking In Your Sleep
TTITLE3=Roger Miller - Little Green Apples
TTITLE4=Faron Young - Its Four In The Morning
TTITLE5=Olivia Newton John - Country Roads
TTITLE6=Conway Twitty - Its Only Make Believe
TTITLE7=Statler Brothers - Flowers On The Wall
TTITLE8=C W McCall - Convoy
TTITLE9=Dr Hook - Better Love Next Time
TTITLE10=Flying Burrito Brothers - Dark End Of The Street
TTITLE11=Hank Williams - I Saw The Light
TTITLE12=Bobbie Gentry - Ode To Billy Joe
TTITLE13=Terri Clark - Poor Poor Pitiful Me
TTITLE14=Billy Ray Cyrus - Achy Breaky Heart
TTITLE15=Toby Keith - Me Too
TTITLE16=Mark Wills - High Low And In Between
TTITLE17=Sammy Kershaw - Meant To Be
TTITLE18=John and Audrey Wiggins - Somewhere In Love
TTITLE19=Keith Stegall - 1969
EXTD=
EXTT0=
EXTT1=
EXTT2=
EXTT3=
EXTT4=
EXTT5=
EXTT6=
EXTT7=
EXTT8=
EXTT9=
EXTT10=
EXTT11=
EXTT12=
EXTT13=
EXTT14=
EXTT15=
EXTT16=
EXTT17=
EXTT18=
EXTT19=
PLAYORDER=
